<mxfile host="app.diagrams.net" modified="2023-04-10T13:34:07.559Z" agent="Mozilla/5.0 (Windows NT 10.0; Win64; x64) AppleWebKit/537.36 (KHTML, like Gecko) Chrome/111.0.0.0 Safari/537.36" etag="qfGwAJn2m6cG7Ehhmrpv" version="21.1.1" type="device">
  <diagram name="Page-1" id="pm1-yS5qAksBfJkr7mk-">
    <mxGraphModel dx="1050" dy="483" grid="1" gridSize="10" guides="1" tooltips="1" connect="1" arrows="1" fold="1" page="1" pageScale="1" pageWidth="850" pageHeight="1100" math="0" shadow="0">
      <root>
        <mxCell id="0" />
        <mxCell id="1" parent="0" />
        <mxCell id="Q231q0BsN7_2RtZYIXI0-16" value="" style="endArrow=none;dashed=1;html=1;rounded=0;entryX=0.999;entryY=0.914;entryDx=0;entryDy=0;entryPerimeter=0;" parent="1" target="Q231q0BsN7_2RtZYIXI0-12" edge="1">
          <mxGeometry width="50" height="50" relative="1" as="geometry">
            <mxPoint x="80" y="600" as="sourcePoint" />
            <mxPoint x="360" y="510" as="targetPoint" />
          </mxGeometry>
        </mxCell>
        <mxCell id="Q231q0BsN7_2RtZYIXI0-2" value=":ShowRateCommand" style="rounded=0;whiteSpace=wrap;html=1;" parent="1" vertex="1">
          <mxGeometry x="130" y="70" width="120" height="40" as="geometry" />
        </mxCell>
        <mxCell id="Q231q0BsN7_2RtZYIXI0-6" value=":Forex" style="rounded=0;whiteSpace=wrap;html=1;" parent="1" vertex="1">
          <mxGeometry x="440" y="70" width="120" height="40" as="geometry" />
        </mxCell>
        <mxCell id="Q231q0BsN7_2RtZYIXI0-8" value="" style="endArrow=none;dashed=1;html=1;rounded=0;entryX=0.446;entryY=1.045;entryDx=0;entryDy=0;entryPerimeter=0;" parent="1" source="Q231q0BsN7_2RtZYIXI0-13" target="Q231q0BsN7_2RtZYIXI0-2" edge="1">
          <mxGeometry width="50" height="50" relative="1" as="geometry">
            <mxPoint x="184" y="670" as="sourcePoint" />
            <mxPoint x="460" y="300" as="targetPoint" />
          </mxGeometry>
        </mxCell>
        <mxCell id="Q231q0BsN7_2RtZYIXI0-10" value="" style="endArrow=none;dashed=1;html=1;rounded=0;entryX=0.446;entryY=1.045;entryDx=0;entryDy=0;entryPerimeter=0;" parent="1" edge="1">
          <mxGeometry width="50" height="50" relative="1" as="geometry">
            <mxPoint x="499.29" y="667" as="sourcePoint" />
            <mxPoint x="499.29" y="110" as="targetPoint" />
          </mxGeometry>
        </mxCell>
        <mxCell id="Q231q0BsN7_2RtZYIXI0-12" value="alt" style="shape=umlFrame;whiteSpace=wrap;html=1;pointerEvents=0;" parent="1" vertex="1">
          <mxGeometry x="80" y="160" width="700" height="480" as="geometry" />
        </mxCell>
        <mxCell id="Q231q0BsN7_2RtZYIXI0-15" value="" style="endArrow=none;dashed=1;html=1;rounded=0;" parent="1" edge="1">
          <mxGeometry width="50" height="50" relative="1" as="geometry">
            <mxPoint x="184" y="670" as="sourcePoint" />
            <mxPoint x="184" y="600" as="targetPoint" />
          </mxGeometry>
        </mxCell>
        <mxCell id="Q231q0BsN7_2RtZYIXI0-13" value="" style="html=1;points=[];perimeter=orthogonalPerimeter;outlineConnect=0;targetShapes=umlLifeline;portConstraint=eastwest;newEdgeStyle={&quot;edgeStyle&quot;:&quot;elbowEdgeStyle&quot;,&quot;elbow&quot;:&quot;vertical&quot;,&quot;curved&quot;:0,&quot;rounded&quot;:0};" parent="1" vertex="1">
          <mxGeometry x="180" y="140" width="10" height="510" as="geometry" />
        </mxCell>
        <mxCell id="Q231q0BsN7_2RtZYIXI0-18" value="execute(:Ui, :AccountList)" style="html=1;verticalAlign=bottom;startArrow=circle;startFill=1;endArrow=open;startSize=6;endSize=8;edgeStyle=elbowEdgeStyle;elbow=vertical;curved=0;rounded=0;" parent="1" edge="1">
          <mxGeometry x="0.1991" y="10" width="80" relative="1" as="geometry">
            <mxPoint x="10" y="140" as="sourcePoint" />
            <mxPoint x="180" y="140" as="targetPoint" />
            <mxPoint as="offset" />
          </mxGeometry>
        </mxCell>
        <mxCell id="Q231q0BsN7_2RtZYIXI0-19" value="" style="html=1;verticalAlign=bottom;endArrow=open;dashed=1;endSize=8;edgeStyle=elbowEdgeStyle;elbow=vertical;curved=0;rounded=0;" parent="1" edge="1">
          <mxGeometry x="-0.004" relative="1" as="geometry">
            <mxPoint x="50" y="650" as="targetPoint" />
            <mxPoint x="180" y="650" as="sourcePoint" />
            <Array as="points">
              <mxPoint x="135" y="650" />
              <mxPoint x="95" y="660" />
            </Array>
            <mxPoint as="offset" />
          </mxGeometry>
        </mxCell>
        <mxCell id="Q231q0BsN7_2RtZYIXI0-30" value=":Forex" style="html=1;whiteSpace=wrap;" parent="1" vertex="1">
          <mxGeometry x="458.75" y="230" width="82.5" height="20" as="geometry" />
        </mxCell>
        <mxCell id="Q231q0BsN7_2RtZYIXI0-31" value="" style="html=1;points=[];perimeter=orthogonalPerimeter;outlineConnect=0;targetShapes=umlLifeline;portConstraint=eastwest;newEdgeStyle={&quot;edgeStyle&quot;:&quot;elbowEdgeStyle&quot;,&quot;elbow&quot;:&quot;vertical&quot;,&quot;curved&quot;:0,&quot;rounded&quot;:0};" parent="1" vertex="1">
          <mxGeometry x="495" y="250" width="10" height="20" as="geometry" />
        </mxCell>
        <mxCell id="Q231q0BsN7_2RtZYIXI0-32" value="" style="endArrow=classic;html=1;rounded=0;exitX=1;exitY=0.196;exitDx=0;exitDy=0;exitPerimeter=0;entryX=0;entryY=0.5;entryDx=0;entryDy=0;" parent="1" source="Q231q0BsN7_2RtZYIXI0-13" target="Q231q0BsN7_2RtZYIXI0-30" edge="1">
          <mxGeometry width="50" height="50" relative="1" as="geometry">
            <mxPoint x="-12.5" y="304.5" as="sourcePoint" />
            <mxPoint x="457.5" y="304.5" as="targetPoint" />
          </mxGeometry>
        </mxCell>
        <mxCell id="Q231q0BsN7_2RtZYIXI0-35" value="Forex(initial: Currency, target: Currency)" style="text;html=1;align=center;verticalAlign=middle;resizable=0;points=[];autosize=1;strokeColor=none;fillColor=none;" parent="1" vertex="1">
          <mxGeometry x="195" y="200" width="240" height="30" as="geometry" />
        </mxCell>
        <mxCell id="Q231q0BsN7_2RtZYIXI0-40" value="" style="html=1;verticalAlign=bottom;endArrow=open;dashed=1;endSize=8;edgeStyle=elbowEdgeStyle;elbow=vertical;curved=0;rounded=0;" parent="1" source="Q4Q764TqeqpRmu9BLDf8-3" target="Q231q0BsN7_2RtZYIXI0-13" edge="1">
          <mxGeometry x="-0.004" relative="1" as="geometry">
            <mxPoint x="195" y="390" as="targetPoint" />
            <mxPoint x="505" y="390" as="sourcePoint" />
            <Array as="points">
              <mxPoint x="580" y="330" />
              <mxPoint x="460" y="390" />
              <mxPoint x="420" y="400" />
            </Array>
            <mxPoint as="offset" />
          </mxGeometry>
        </mxCell>
        <mxCell id="Q231q0BsN7_2RtZYIXI0-43" value="" style="endArrow=classic;html=1;rounded=0;entryX=0;entryY=0.5;entryDx=0;entryDy=0;" parent="1" source="Q231q0BsN7_2RtZYIXI0-13" target="Q231q0BsN7_2RtZYIXI0-36" edge="1">
          <mxGeometry width="50" height="50" relative="1" as="geometry">
            <mxPoint x="190" y="360.5" as="sourcePoint" />
            <mxPoint x="457.5" y="360" as="targetPoint" />
          </mxGeometry>
        </mxCell>
        <mxCell id="Q231q0BsN7_2RtZYIXI0-44" value=":Forex" style="text;html=1;align=center;verticalAlign=middle;resizable=0;points=[];autosize=1;strokeColor=none;fillColor=none;" parent="1" vertex="1">
          <mxGeometry x="260" y="245" width="60" height="30" as="geometry" />
        </mxCell>
        <mxCell id="Q231q0BsN7_2RtZYIXI0-45" value=":Forex" style="text;html=1;align=center;verticalAlign=middle;resizable=0;points=[];autosize=1;strokeColor=none;fillColor=none;" parent="1" vertex="1">
          <mxGeometry x="275" y="305" width="60" height="30" as="geometry" />
        </mxCell>
        <mxCell id="Q231q0BsN7_2RtZYIXI0-50" value="" style="html=1;points=[];perimeter=orthogonalPerimeter;outlineConnect=0;targetShapes=umlLifeline;portConstraint=eastwest;newEdgeStyle={&quot;edgeStyle&quot;:&quot;elbowEdgeStyle&quot;,&quot;elbow&quot;:&quot;vertical&quot;,&quot;curved&quot;:0,&quot;rounded&quot;:0};" parent="1" vertex="1">
          <mxGeometry x="185" y="365" width="10" height="30" as="geometry" />
        </mxCell>
        <mxCell id="Q231q0BsN7_2RtZYIXI0-59" value="printMessage(:String)" style="text;html=1;align=center;verticalAlign=middle;resizable=0;points=[];autosize=1;strokeColor=none;fillColor=none;" parent="1" vertex="1">
          <mxGeometry x="200" y="400" width="140" height="30" as="geometry" />
        </mxCell>
        <mxCell id="Q231q0BsN7_2RtZYIXI0-60" value="getRateString(inst: Forex, rev: Forex)" style="text;html=1;align=center;verticalAlign=middle;resizable=0;points=[];autosize=1;strokeColor=none;fillColor=none;" parent="1" vertex="1">
          <mxGeometry x="185" y="330" width="220" height="30" as="geometry" />
        </mxCell>
        <mxCell id="Q231q0BsN7_2RtZYIXI0-69" value="" style="endArrow=classic;html=1;rounded=0;" parent="1" edge="1">
          <mxGeometry width="50" height="50" relative="1" as="geometry">
            <mxPoint x="190" y="619.74" as="sourcePoint" />
            <mxPoint x="335" y="619.74" as="targetPoint" />
          </mxGeometry>
        </mxCell>
        <mxCell id="Q231q0BsN7_2RtZYIXI0-70" value="" style="html=1;verticalAlign=bottom;endArrow=open;dashed=1;endSize=8;edgeStyle=elbowEdgeStyle;elbow=vertical;curved=0;rounded=0;" parent="1" edge="1">
          <mxGeometry x="-0.004" relative="1" as="geometry">
            <mxPoint x="190" y="630" as="targetPoint" />
            <mxPoint x="335" y="630" as="sourcePoint" />
            <Array as="points">
              <mxPoint x="330" y="630" />
              <mxPoint x="440" y="600" />
            </Array>
            <mxPoint as="offset" />
          </mxGeometry>
        </mxCell>
        <mxCell id="Q231q0BsN7_2RtZYIXI0-72" value="printMessage(:String)" style="text;html=1;align=center;verticalAlign=middle;resizable=0;points=[];autosize=1;strokeColor=none;fillColor=none;" parent="1" vertex="1">
          <mxGeometry x="190" y="595" width="140" height="30" as="geometry" />
        </mxCell>
        <mxCell id="Q4Q764TqeqpRmu9BLDf8-3" value=":Forex" style="shape=umlLifeline;perimeter=lifelinePerimeter;whiteSpace=wrap;html=1;container=1;dropTarget=0;collapsible=0;recursiveResize=0;outlineConnect=0;portConstraint=eastwest;newEdgeStyle={&quot;edgeStyle&quot;:&quot;elbowEdgeStyle&quot;,&quot;elbow&quot;:&quot;vertical&quot;,&quot;curved&quot;:0,&quot;rounded&quot;:0};" parent="1" vertex="1">
          <mxGeometry x="600" y="70" width="110" height="600" as="geometry" />
        </mxCell>
        <mxCell id="Q231q0BsN7_2RtZYIXI0-38" value="" style="html=1;points=[];perimeter=orthogonalPerimeter;outlineConnect=0;targetShapes=umlLifeline;portConstraint=eastwest;newEdgeStyle={&quot;edgeStyle&quot;:&quot;elbowEdgeStyle&quot;,&quot;elbow&quot;:&quot;vertical&quot;,&quot;curved&quot;:0,&quot;rounded&quot;:0};" parent="Q4Q764TqeqpRmu9BLDf8-3" vertex="1">
          <mxGeometry x="50" y="240" width="10" height="20" as="geometry" />
        </mxCell>
        <mxCell id="Q231q0BsN7_2RtZYIXI0-36" value=":Forex" style="html=1;whiteSpace=wrap;verticalAlign=middle;" parent="1" vertex="1">
          <mxGeometry x="613.75" y="290" width="82.5" height="20" as="geometry" />
        </mxCell>
        <mxCell id="Q4Q764TqeqpRmu9BLDf8-4" value="" style="html=1;verticalAlign=bottom;endArrow=open;dashed=1;endSize=8;edgeStyle=elbowEdgeStyle;elbow=vertical;curved=0;rounded=0;" parent="1" target="Q231q0BsN7_2RtZYIXI0-13" edge="1">
          <mxGeometry x="-0.004" relative="1" as="geometry">
            <mxPoint x="190" y="330" as="targetPoint" />
            <mxPoint x="500" y="270" as="sourcePoint" />
            <Array as="points">
              <mxPoint x="410" y="270" />
              <mxPoint x="455" y="330" />
            </Array>
            <mxPoint as="offset" />
          </mxGeometry>
        </mxCell>
        <mxCell id="Q231q0BsN7_2RtZYIXI0-41" value="Forex(target: Currency, initial: Currency)" style="text;html=1;align=center;verticalAlign=middle;resizable=0;points=[];autosize=1;strokeColor=none;fillColor=none;" parent="1" vertex="1">
          <mxGeometry x="230" y="275" width="240" height="30" as="geometry" />
        </mxCell>
        <mxCell id="Q4Q764TqeqpRmu9BLDf8-5" value=":Ui" style="shape=umlLifeline;perimeter=lifelinePerimeter;whiteSpace=wrap;html=1;container=1;dropTarget=0;collapsible=0;recursiveResize=0;outlineConnect=0;portConstraint=eastwest;newEdgeStyle={&quot;edgeStyle&quot;:&quot;elbowEdgeStyle&quot;,&quot;elbow&quot;:&quot;vertical&quot;,&quot;curved&quot;:0,&quot;rounded&quot;:0};" parent="1" vertex="1">
          <mxGeometry x="290" y="70" width="100" height="600" as="geometry" />
        </mxCell>
        <mxCell id="Q231q0BsN7_2RtZYIXI0-47" value="" style="html=1;points=[];perimeter=orthogonalPerimeter;outlineConnect=0;targetShapes=umlLifeline;portConstraint=eastwest;newEdgeStyle={&quot;edgeStyle&quot;:&quot;elbowEdgeStyle&quot;,&quot;elbow&quot;:&quot;vertical&quot;,&quot;curved&quot;:0,&quot;rounded&quot;:0};" parent="Q4Q764TqeqpRmu9BLDf8-5" vertex="1">
          <mxGeometry x="45" y="360" width="10" height="20" as="geometry" />
        </mxCell>
        <mxCell id="Q4Q764TqeqpRmu9BLDf8-19" value="" style="html=1;points=[];perimeter=orthogonalPerimeter;outlineConnect=0;targetShapes=umlLifeline;portConstraint=eastwest;newEdgeStyle={&quot;edgeStyle&quot;:&quot;elbowEdgeStyle&quot;,&quot;elbow&quot;:&quot;vertical&quot;,&quot;curved&quot;:0,&quot;rounded&quot;:0};" parent="Q4Q764TqeqpRmu9BLDf8-5" vertex="1">
          <mxGeometry x="45" y="500" width="10" height="20" as="geometry" />
        </mxCell>
        <mxCell id="Q4Q764TqeqpRmu9BLDf8-6" value="" style="endArrow=classic;html=1;rounded=0;" parent="1" target="Q231q0BsN7_2RtZYIXI0-50" edge="1">
          <mxGeometry width="50" height="50" relative="1" as="geometry">
            <mxPoint x="190" y="355" as="sourcePoint" />
            <mxPoint x="280" y="345" as="targetPoint" />
            <Array as="points">
              <mxPoint x="240" y="355" />
              <mxPoint x="240" y="365" />
            </Array>
          </mxGeometry>
        </mxCell>
        <mxCell id="Q4Q764TqeqpRmu9BLDf8-7" value="" style="endArrow=classic;html=1;rounded=0;dashed=1;" parent="1" edge="1">
          <mxGeometry width="50" height="50" relative="1" as="geometry">
            <mxPoint x="190" y="395" as="sourcePoint" />
            <mxPoint x="190" y="405" as="targetPoint" />
            <Array as="points">
              <mxPoint x="240" y="395" />
              <mxPoint x="240" y="405" />
            </Array>
          </mxGeometry>
        </mxCell>
        <mxCell id="Q4Q764TqeqpRmu9BLDf8-8" value=":String" style="text;html=1;align=center;verticalAlign=middle;resizable=0;points=[];autosize=1;strokeColor=none;fillColor=none;" parent="1" vertex="1">
          <mxGeometry x="200" y="370" width="60" height="30" as="geometry" />
        </mxCell>
        <mxCell id="Q4Q764TqeqpRmu9BLDf8-9" value="" style="endArrow=classic;html=1;rounded=0;exitX=1;exitY=0.569;exitDx=0;exitDy=0;exitPerimeter=0;" parent="1" source="Q231q0BsN7_2RtZYIXI0-13" target="Q231q0BsN7_2RtZYIXI0-47" edge="1">
          <mxGeometry width="50" height="50" relative="1" as="geometry">
            <mxPoint x="400" y="400" as="sourcePoint" />
            <mxPoint x="450" y="350" as="targetPoint" />
          </mxGeometry>
        </mxCell>
        <mxCell id="Q4Q764TqeqpRmu9BLDf8-10" value="" style="html=1;verticalAlign=bottom;endArrow=open;dashed=1;endSize=8;edgeStyle=elbowEdgeStyle;elbow=vertical;curved=0;rounded=0;" parent="1" target="Q231q0BsN7_2RtZYIXI0-13" edge="1">
          <mxGeometry y="50" relative="1" as="geometry">
            <mxPoint x="330" y="450" as="sourcePoint" />
            <mxPoint x="380" y="380" as="targetPoint" />
            <mxPoint as="offset" />
          </mxGeometry>
        </mxCell>
        <mxCell id="Q4Q764TqeqpRmu9BLDf8-11" value=":String" style="text;html=1;align=center;verticalAlign=middle;resizable=0;points=[];autosize=1;strokeColor=none;fillColor=none;" parent="1" vertex="1">
          <mxGeometry x="200" y="510" width="60" height="30" as="geometry" />
        </mxCell>
        <mxCell id="Q4Q764TqeqpRmu9BLDf8-12" value="" style="endArrow=classic;html=1;rounded=0;dashed=1;" parent="1" edge="1">
          <mxGeometry width="50" height="50" relative="1" as="geometry">
            <mxPoint x="190" y="535" as="sourcePoint" />
            <mxPoint x="190" y="545" as="targetPoint" />
            <Array as="points">
              <mxPoint x="240" y="535" />
              <mxPoint x="240" y="545" />
            </Array>
          </mxGeometry>
        </mxCell>
        <mxCell id="Q4Q764TqeqpRmu9BLDf8-13" value="" style="html=1;points=[];perimeter=orthogonalPerimeter;outlineConnect=0;targetShapes=umlLifeline;portConstraint=eastwest;newEdgeStyle={&quot;edgeStyle&quot;:&quot;elbowEdgeStyle&quot;,&quot;elbow&quot;:&quot;vertical&quot;,&quot;curved&quot;:0,&quot;rounded&quot;:0};" parent="1" vertex="1">
          <mxGeometry x="185" y="505" width="10" height="30" as="geometry" />
        </mxCell>
        <mxCell id="Q4Q764TqeqpRmu9BLDf8-14" value="" style="endArrow=classic;html=1;rounded=0;" parent="1" target="Q4Q764TqeqpRmu9BLDf8-13" edge="1">
          <mxGeometry width="50" height="50" relative="1" as="geometry">
            <mxPoint x="190" y="495" as="sourcePoint" />
            <mxPoint x="280" y="485" as="targetPoint" />
            <Array as="points">
              <mxPoint x="240" y="495" />
              <mxPoint x="240" y="505" />
            </Array>
          </mxGeometry>
        </mxCell>
        <mxCell id="Q4Q764TqeqpRmu9BLDf8-15" value="getRateString(rev: Forex, inst: Forex)" style="text;html=1;align=center;verticalAlign=middle;resizable=0;points=[];autosize=1;strokeColor=none;fillColor=none;" parent="1" vertex="1">
          <mxGeometry x="185" y="470" width="220" height="30" as="geometry" />
        </mxCell>
        <mxCell id="Q4Q764TqeqpRmu9BLDf8-16" value="printMessage(:String)" style="text;html=1;align=center;verticalAlign=middle;resizable=0;points=[];autosize=1;strokeColor=none;fillColor=none;" parent="1" vertex="1">
          <mxGeometry x="200" y="540" width="140" height="30" as="geometry" />
        </mxCell>
        <mxCell id="Q4Q764TqeqpRmu9BLDf8-17" value="" style="endArrow=classic;html=1;rounded=0;exitX=1;exitY=0.569;exitDx=0;exitDy=0;exitPerimeter=0;" parent="1" edge="1">
          <mxGeometry width="50" height="50" relative="1" as="geometry">
            <mxPoint x="190" y="570" as="sourcePoint" />
            <mxPoint x="335" y="570" as="targetPoint" />
          </mxGeometry>
        </mxCell>
        <mxCell id="Q4Q764TqeqpRmu9BLDf8-18" value="" style="html=1;verticalAlign=bottom;endArrow=open;dashed=1;endSize=8;edgeStyle=elbowEdgeStyle;elbow=vertical;curved=0;rounded=0;" parent="1" edge="1">
          <mxGeometry y="50" relative="1" as="geometry">
            <mxPoint x="330" y="590" as="sourcePoint" />
            <mxPoint x="190" y="590" as="targetPoint" />
            <mxPoint as="offset" />
          </mxGeometry>
        </mxCell>
        <mxCell id="Q231q0BsN7_2RtZYIXI0-67" value="" style="html=1;points=[];perimeter=orthogonalPerimeter;outlineConnect=0;targetShapes=umlLifeline;portConstraint=eastwest;newEdgeStyle={&quot;edgeStyle&quot;:&quot;elbowEdgeStyle&quot;,&quot;elbow&quot;:&quot;vertical&quot;,&quot;curved&quot;:0,&quot;rounded&quot;:0};" parent="1" vertex="1">
          <mxGeometry x="335" y="620" width="10" height="10" as="geometry" />
        </mxCell>
        <mxCell id="Q4Q764TqeqpRmu9BLDf8-20" value="[No Exception]" style="text;html=1;align=center;verticalAlign=middle;resizable=0;points=[];autosize=1;strokeColor=none;fillColor=none;" parent="1" vertex="1">
          <mxGeometry x="70" y="195" width="100" height="30" as="geometry" />
        </mxCell>
        <mxCell id="Q4Q764TqeqpRmu9BLDf8-21" value="[Exception]" style="text;html=1;align=center;verticalAlign=middle;resizable=0;points=[];autosize=1;strokeColor=none;fillColor=none;" parent="1" vertex="1">
          <mxGeometry x="80" y="600" width="80" height="30" as="geometry" />
        </mxCell>
      </root>
    </mxGraphModel>
  </diagram>
</mxfile>
